<?xml version="1.0" encoding="UTF-8"?>
<!DOCTYPE svg PUBLIC "-//W3C//DTD SVG 1.1//EN" "http://www.w3.org/Graphics/SVG/1.1/DTD/svg11.dtd">
<svg xmlns="http://www.w3.org/2000/svg" version="1.1" width="512px" height="512px" style="shape-rendering:geometricPrecision; text-rendering:geometricPrecision; image-rendering:optimizeQuality; fill-rule:evenodd; clip-rule:evenodd" xmlns:xlink="http://www.w3.org/1999/xlink">
<g><path style="opacity:0.993" fill="#fdfdfd" d="M 277.5,511.5 C 262.5,511.5 247.5,511.5 232.5,511.5C 135.428,499.571 65.2613,449.904 22,362.5C 10.0983,335.552 2.59834,307.552 -0.5,278.5C -0.5,263.5 -0.5,248.5 -0.5,233.5C 10.0435,144.518 53.7102,77.3513 130.5,32C 193.993,-1.64725 260.327,-8.64725 329.5,11C 422.512,42.1803 481.012,105.347 505,200.5C 521.747,287.531 501.08,364.198 443,430.5C 397.677,477.411 342.51,504.411 277.5,511.5 Z"/></g>
<g><path style="opacity:1" fill="#fe4343" d="M 249.5,100.5 C 249.5,114.5 249.5,128.5 249.5,142.5C 247.954,139.8 245.621,137.967 242.5,137C 216.5,136.333 190.5,136.333 164.5,137C 162,138.167 160.167,140 159,142.5C 158.333,156.833 158.333,171.167 159,185.5C 160.167,188 162,189.833 164.5,191C 192.831,191.5 221.165,191.667 249.5,191.5C 249.5,209.5 249.5,227.5 249.5,245.5C 248.209,245.263 247.209,245.596 246.5,246.5C 244.629,246.859 243.129,247.859 242,249.5C 231.605,264.899 221.605,280.565 212,296.5C 204.542,310.751 202.542,325.751 206,341.5C 212.337,359.341 224.837,369.674 243.5,372.5C 245.265,373.461 247.265,373.795 249.5,373.5C 249.5,385.5 249.5,397.5 249.5,409.5C 213.832,409.667 178.165,409.5 142.5,409C 132.235,405.736 125.735,398.902 123,388.5C 122.333,299.5 122.333,210.5 123,121.5C 125.726,111.106 132.226,104.273 142.5,101C 178.165,100.5 213.832,100.333 249.5,100.5 Z"/></g>
<g><path style="opacity:1" fill="#ea2828" d="M 249.5,100.5 C 263.837,100.333 278.171,100.5 292.5,101C 295.583,102.139 298.583,103.472 301.5,105C 307.88,112.296 313.88,119.796 319.5,127.5C 333.478,147.47 347.812,167.137 362.5,186.5C 365.399,191.282 368.566,195.949 372,200.5C 373.608,203.382 374.941,206.382 376,209.5C 376.667,269.167 376.667,328.833 376,388.5C 373.238,398.928 366.738,405.761 356.5,409C 320.835,409.5 285.168,409.667 249.5,409.5C 249.5,397.5 249.5,385.5 249.5,373.5C 277.592,370.576 292.592,355.076 294.5,327C 294.063,314.284 290.563,302.451 284,291.5C 274.418,277.337 265.084,263.004 256,248.5C 254.007,247.086 251.84,246.086 249.5,245.5C 249.5,227.5 249.5,209.5 249.5,191.5C 256.921,191.891 264.254,191.391 271.5,190C 275.13,186.95 276.297,183.117 275,178.5C 266.281,166.621 257.781,154.621 249.5,142.5C 249.5,128.5 249.5,114.5 249.5,100.5 Z"/></g>
<g><path style="opacity:1" fill="#2a3a39" d="M 362.5,186.5 C 347.812,167.137 333.478,147.47 319.5,127.5C 326.68,122.496 334.013,117.663 341.5,113C 344.5,112.333 347.5,112.333 350.5,113C 362.699,128.565 374.532,144.399 386,160.5C 388.167,164.996 387.667,169.163 384.5,173C 377.278,177.773 369.945,182.273 362.5,186.5 Z"/></g>
<g><path style="opacity:1" fill="#fefcfc" d="M 249.5,142.5 C 257.781,154.621 266.281,166.621 275,178.5C 276.297,183.117 275.13,186.95 271.5,190C 264.254,191.391 256.921,191.891 249.5,191.5C 221.165,191.667 192.831,191.5 164.5,191C 162,189.833 160.167,188 159,185.5C 158.333,171.167 158.333,156.833 159,142.5C 160.167,140 162,138.167 164.5,137C 190.5,136.333 216.5,136.333 242.5,137C 245.621,137.967 247.954,139.8 249.5,142.5 Z"/></g>
<g><path style="opacity:1" fill="#fdd840" d="M 246.5,246.5 C 247.5,246.5 248.5,246.5 249.5,246.5C 249.5,288.5 249.5,330.5 249.5,372.5C 247.5,372.5 245.5,372.5 243.5,372.5C 224.837,369.674 212.337,359.341 206,341.5C 202.542,325.751 204.542,310.751 212,296.5C 221.605,280.565 231.605,264.899 242,249.5C 243.129,247.859 244.629,246.859 246.5,246.5 Z"/></g>
<g><path style="opacity:1" fill="#fbbd29" d="M 246.5,246.5 C 247.209,245.596 248.209,245.263 249.5,245.5C 251.84,246.086 254.007,247.086 256,248.5C 265.084,263.004 274.418,277.337 284,291.5C 290.563,302.451 294.063,314.284 294.5,327C 292.592,355.076 277.592,370.576 249.5,373.5C 247.265,373.795 245.265,373.461 243.5,372.5C 245.5,372.5 247.5,372.5 249.5,372.5C 249.5,330.5 249.5,288.5 249.5,246.5C 248.5,246.5 247.5,246.5 246.5,246.5 Z"/></g>
</svg>
