<?xml version="1.0" encoding="UTF-8"?>
<!DOCTYPE svg PUBLIC "-//W3C//DTD SVG 1.1//EN" "http://www.w3.org/Graphics/SVG/1.1/DTD/svg11.dtd">
<svg xmlns="http://www.w3.org/2000/svg" version="1.1" width="512px" height="512px" style="shape-rendering:geometricPrecision; text-rendering:geometricPrecision; image-rendering:optimizeQuality; fill-rule:evenodd; clip-rule:evenodd" xmlns:xlink="http://www.w3.org/1999/xlink">
<g><path style="opacity:0.994" fill="#fdfdfd" d="M 277.5,511.5 C 262.5,511.5 247.5,511.5 232.5,511.5C 135.428,499.571 65.2613,449.904 22,362.5C 10.0983,335.552 2.59834,307.552 -0.5,278.5C -0.5,263.5 -0.5,248.5 -0.5,233.5C 10.0435,144.518 53.7102,77.3513 130.5,32C 193.993,-1.64725 260.327,-8.64725 329.5,11C 422.512,42.1803 481.012,105.347 505,200.5C 521.747,287.531 501.08,364.198 443,430.5C 397.677,477.411 342.51,504.411 277.5,511.5 Z"/></g>
<g><path style="opacity:1" fill="#f2cfcf" d="M 274.5,78.5 C 264.518,77.7433 254.518,77.41 244.5,77.5C 247.258,76.1818 250.424,75.5152 254,75.5C 261.139,75.3527 267.973,76.3527 274.5,78.5 Z"/></g>
<g><path style="opacity:1" fill="#eaaead" d="M 240.5,77.5 C 234.982,78.6205 229.315,79.6205 223.5,80.5C 225.476,78.9891 227.809,78.1558 230.5,78C 233.817,77.5017 237.15,77.335 240.5,77.5 Z"/></g>
<g><path style="opacity:1" fill="#d50301" d="M 240.5,77.5 C 241.833,77.5 243.167,77.5 244.5,77.5C 254.518,77.41 264.518,77.7433 274.5,78.5C 278.942,79.9901 283.609,80.9901 288.5,81.5C 294.499,84.2762 300.833,86.2762 307.5,87.5C 317.567,92.035 327.234,97.3683 336.5,103.5C 337.585,105.587 339.251,106.92 341.5,107.5C 342.262,109.262 343.596,110.262 345.5,110.5C 348.833,114.5 352.5,118.167 356.5,121.5C 372.041,138.437 383.041,158.103 389.5,180.5C 389.41,183.152 390.076,185.485 391.5,187.5C 392.477,190.287 392.81,193.287 392.5,196.5C 393.194,208.154 393.527,219.82 393.5,231.5C 393.5,232.167 393.5,232.833 393.5,233.5C 392.475,236.974 391.808,240.64 391.5,244.5C 390.183,253.119 387.849,261.452 384.5,269.5C 382.935,271.509 381.935,273.843 381.5,276.5C 379.842,279.789 378.175,283.123 376.5,286.5C 375.094,286.973 374.427,287.973 374.5,289.5C 372.05,291.629 370.383,294.296 369.5,297.5C 366.591,300.981 363.925,304.648 361.5,308.5C 357.434,311.563 354.101,315.229 351.5,319.5C 349.086,320.911 347.419,322.911 346.5,325.5C 344.453,327.55 342.786,329.883 341.5,332.5C 339.413,333.585 338.08,335.251 337.5,337.5C 332.458,343.208 327.791,349.208 323.5,355.5C 321.413,356.585 320.08,358.251 319.5,360.5C 317.413,361.585 316.08,363.251 315.5,365.5C 313.413,366.585 312.08,368.251 311.5,370.5C 306.79,375.877 302.457,381.543 298.5,387.5C 296.413,388.585 295.08,390.251 294.5,392.5C 292.086,393.911 290.419,395.911 289.5,398.5C 288.094,398.973 287.427,399.973 287.5,401.5C 285.413,402.585 284.08,404.251 283.5,406.5C 281.016,408.8 279.016,411.467 277.5,414.5C 275.413,415.585 274.08,417.251 273.5,419.5C 271.413,420.585 270.08,422.251 269.5,424.5C 268.5,424.833 267.833,425.5 267.5,426.5C 262.04,429.921 256.04,431.254 249.5,430.5C 247.518,430.005 245.518,429.505 243.5,429C 237.302,421.309 230.969,413.809 224.5,406.5C 223.92,404.251 222.587,402.585 220.5,401.5C 218.984,398.467 216.984,395.8 214.5,393.5C 213.92,391.251 212.587,389.585 210.5,388.5C 209.581,385.911 207.914,383.911 205.5,382.5C 200.927,374.926 195.594,367.926 189.5,361.5C 188.92,359.251 187.587,357.585 185.5,356.5C 183.542,353.208 181.209,350.208 178.5,347.5C 177.581,344.911 175.914,342.911 173.5,341.5C 171.075,337.648 168.409,333.981 165.5,330.5C 164.581,327.911 162.914,325.911 160.5,324.5C 160.262,322.596 159.262,321.262 157.5,320.5C 156.92,318.251 155.587,316.585 153.5,315.5C 146.765,308.338 140.765,300.672 135.5,292.5C 134.921,289.669 133.588,287.336 131.5,285.5C 131.34,283.847 130.674,282.514 129.5,281.5C 129.573,279.973 128.906,278.973 127.5,278.5C 125.676,273.675 123.676,269.008 121.5,264.5C 121.277,260.838 120.277,257.505 118.5,254.5C 115.373,241.362 113.707,228.028 113.5,214.5C 113.273,205.985 114.273,197.652 116.5,189.5C 118.277,186.495 119.277,183.162 119.5,179.5C 120.038,177.883 120.371,176.216 120.5,174.5C 122.585,172.316 123.585,169.649 123.5,166.5C 126.227,160.046 129.227,153.712 132.5,147.5C 133.906,147.027 134.573,146.027 134.5,144.5C 135.759,140.975 137.759,137.975 140.5,135.5C 142.587,134.415 143.92,132.749 144.5,130.5C 149.107,124.224 154.441,118.557 160.5,113.5C 163.427,112.243 165.761,110.243 167.5,107.5C 177.674,98.3489 189.341,91.6822 202.5,87.5C 206.767,86.7444 210.767,85.411 214.5,83.5C 217.659,82.6693 220.659,81.6693 223.5,80.5C 229.315,79.6205 234.982,78.6205 240.5,77.5 Z"/></g>
<g><path style="opacity:1" fill="#e07b78" d="M 288.5,81.5 C 295.167,82.7238 301.501,84.7238 307.5,87.5C 300.833,86.2762 294.499,84.2762 288.5,81.5 Z"/></g>
<g><path style="opacity:1" fill="#eaadac" d="M 223.5,80.5 C 220.659,81.6693 217.659,82.6693 214.5,83.5C 212.139,83.6741 209.806,84.0074 207.5,84.5C 212.551,82.5373 217.884,81.2039 223.5,80.5 Z"/></g>
<g><path style="opacity:1" fill="#da4c47" d="M 214.5,83.5 C 210.767,85.411 206.767,86.7444 202.5,87.5C 204.072,86.3127 205.739,85.3127 207.5,84.5C 209.806,84.0074 212.139,83.6741 214.5,83.5 Z"/></g>
<g><path style="opacity:1" fill="#e69c9a" d="M 336.5,103.5 C 338.749,104.08 340.415,105.413 341.5,107.5C 339.251,106.92 337.585,105.587 336.5,103.5 Z"/></g>
<g><path style="opacity:1" fill="#db5853" d="M 167.5,107.5 C 165.761,110.243 163.427,112.243 160.5,113.5C 162.239,110.757 164.573,108.757 167.5,107.5 Z"/></g>
<g><path style="opacity:1" fill="#eaabaa" d="M 345.5,110.5 C 350.167,113.167 353.833,116.833 356.5,121.5C 352.5,118.167 348.833,114.5 345.5,110.5 Z"/></g>
<g><path style="opacity:1" fill="#dc5f5b" d="M 144.5,130.5 C 143.92,132.749 142.587,134.415 140.5,135.5C 141.08,133.251 142.413,131.585 144.5,130.5 Z"/></g>
<g><path style="opacity:1" fill="#e07b7a" d="M 134.5,144.5 C 134.573,146.027 133.906,147.027 132.5,147.5C 132.427,145.973 133.094,144.973 134.5,144.5 Z"/></g>
<g><path style="opacity:1" fill="#fdfafa" d="M 279.5,151.5 C 279.427,153.027 280.094,154.027 281.5,154.5C 281.5,167.833 281.5,181.167 281.5,194.5C 283.833,194.5 286.167,194.5 288.5,194.5C 294.925,195.209 299.925,198.209 303.5,203.5C 303.259,205.898 303.926,207.898 305.5,209.5C 305.333,224.837 305.5,240.17 306,255.5C 308.293,258.134 310.46,258.134 312.5,255.5C 313.497,233.34 313.831,211.006 313.5,188.5C 310.359,187.679 307.025,187.179 303.5,187C 301.496,184.159 300.996,180.993 302,177.5C 304.158,176.511 305.325,174.844 305.5,172.5C 306.29,171.206 307.29,170.039 308.5,169C 307.619,168.292 306.953,167.458 306.5,166.5C 305.415,164.413 303.749,163.08 301.5,162.5C 295.829,158.305 295.162,153.472 299.5,148C 304.041,146.886 308.041,147.886 311.5,151C 316.037,155.369 320.37,159.869 324.5,164.5C 325.845,166.697 327.011,169.03 328,171.5C 328.5,200.498 328.667,229.498 328.5,258.5C 327.284,262.052 325.618,265.385 323.5,268.5C 321.847,268.66 320.514,269.326 319.5,270.5C 312.873,273.01 306.206,273.01 299.5,270.5C 296.622,269.438 294.622,267.438 293.5,264.5C 293.108,262.821 292.608,261.154 292,259.5C 291.831,243.328 291.331,227.328 290.5,211.5C 290.027,210.094 289.027,209.427 287.5,209.5C 285.833,209.5 284.167,209.5 282.5,209.5C 282.5,230.5 282.5,251.5 282.5,272.5C 289.685,272.848 292.519,276.515 291,283.5C 289.457,285.378 287.624,286.878 285.5,288C 254.833,288.667 224.167,288.667 193.5,288C 192.058,287.623 191.058,286.79 190.5,285.5C 188.874,281.573 189.207,277.906 191.5,274.5C 193.764,273.781 196.097,273.448 198.5,273.5C 198.5,233.5 198.5,193.5 198.5,153.5C 199.478,150.029 201.812,148.195 205.5,148C 227.833,147.333 250.167,147.333 272.5,148C 275.139,148.653 277.473,149.82 279.5,151.5 Z"/></g>
<g><path style="opacity:1" fill="#e28583" d="M 279.5,151.5 C 280.906,151.973 281.573,152.973 281.5,154.5C 280.094,154.027 279.427,153.027 279.5,151.5 Z"/></g>
<g><path style="opacity:1" fill="#f1c3c1" d="M 198.5,153.5 C 198.5,193.5 198.5,233.5 198.5,273.5C 196.097,273.448 193.764,273.781 191.5,274.5C 192.635,272.787 194.302,272.12 196.5,272.5C 196.333,233.499 196.5,194.499 197,155.5C 197.278,154.584 197.778,153.918 198.5,153.5 Z"/></g>
<g><path style="opacity:1" fill="#ebadab" d="M 263.5,163.5 C 247.167,163.5 230.833,163.5 214.5,163.5C 214.611,162.883 214.944,162.383 215.5,162C 231.167,161.333 246.833,161.333 262.5,162C 263.056,162.383 263.389,162.883 263.5,163.5 Z"/></g>
<g><path style="opacity:1" fill="#e8a6a5" d="M 301.5,162.5 C 303.749,163.08 305.415,164.413 306.5,166.5C 304.251,165.92 302.585,164.587 301.5,162.5 Z"/></g>
<g><path style="opacity:1" fill="#d50402" d="M 214.5,163.5 C 230.833,163.5 247.167,163.5 263.5,163.5C 264.833,164.167 265.833,165.167 266.5,166.5C 266.773,178.871 266.44,191.204 265.5,203.5C 264.711,203.783 264.044,204.283 263.5,205C 247.328,205.828 231.328,205.661 215.5,204.5C 215.217,203.711 214.717,203.044 214,202.5C 213.188,189.758 213.354,177.091 214.5,164.5C 214.5,164.167 214.5,163.833 214.5,163.5 Z"/></g>
<g><path style="opacity:1" fill="#de7c7c" d="M 266.5,166.5 C 267.659,177.993 267.826,189.659 267,201.5C 266.722,202.416 266.222,203.082 265.5,203.5C 266.44,191.204 266.773,178.871 266.5,166.5 Z"/></g>
<g><path style="opacity:1" fill="#db605f" d="M 214.5,164.5 C 213.354,177.091 213.188,189.758 214,202.5C 214.717,203.044 215.217,203.711 215.5,204.5C 214.504,204.586 213.671,204.252 213,203.5C 212.833,197 212.667,190.5 212.5,184C 212.503,177.131 213.17,170.631 214.5,164.5 Z"/></g>
<g><path style="opacity:1" fill="#de635d" d="M 123.5,166.5 C 123.585,169.649 122.585,172.316 120.5,174.5C 120.733,171.458 121.733,168.792 123.5,166.5 Z"/></g>
<g><path style="opacity:1" fill="#e49e9e" d="M 281.5,154.5 C 282.495,167.323 282.829,180.323 282.5,193.5C 284.735,193.205 286.735,193.539 288.5,194.5C 286.167,194.5 283.833,194.5 281.5,194.5C 281.5,181.167 281.5,167.833 281.5,154.5 Z"/></g>
<g><path style="opacity:1" fill="#f0c6c5" d="M 305.5,172.5 C 305.325,174.844 304.158,176.511 302,177.5C 300.996,180.993 301.496,184.159 303.5,187C 307.025,187.179 310.359,187.679 313.5,188.5C 310.167,188.5 306.833,188.5 303.5,188.5C 299.22,185.457 298.386,181.457 301,176.5C 302.371,174.959 303.871,173.625 305.5,172.5 Z"/></g>
<g><path style="opacity:1" fill="#dc5852" d="M 119.5,179.5 C 119.277,183.162 118.277,186.495 116.5,189.5C 116.723,185.838 117.723,182.505 119.5,179.5 Z"/></g>
<g><path style="opacity:1" fill="#e07471" d="M 389.5,180.5 C 390.924,182.515 391.59,184.848 391.5,187.5C 390.076,185.485 389.41,183.152 389.5,180.5 Z"/></g>
<g><path style="opacity:1" fill="#e38a87" d="M 303.5,203.5 C 305.074,205.102 305.741,207.102 305.5,209.5C 303.926,207.898 303.259,205.898 303.5,203.5 Z"/></g>
<g><path style="opacity:1" fill="#dd6c6a" d="M 392.5,196.5 C 394.001,203.27 394.667,210.27 394.5,217.5C 394.499,222.346 394.166,227.012 393.5,231.5C 393.527,219.82 393.194,208.154 392.5,196.5 Z"/></g>
<g><path style="opacity:1" fill="#da5c5b" d="M 287.5,209.5 C 289.027,209.427 290.027,210.094 290.5,211.5C 290.5,227.167 290.5,242.833 290.5,258.5C 289.669,243.339 289.169,228.005 289,212.5C 288.487,211.473 287.987,210.473 287.5,209.5 Z"/></g>
<g><path style="opacity:1" fill="#ebb6b5" d="M 290.5,211.5 C 291.331,227.328 291.831,243.328 292,259.5C 292.608,261.154 293.108,262.821 293.5,264.5C 291.755,262.967 290.755,260.967 290.5,258.5C 290.5,242.833 290.5,227.167 290.5,211.5 Z"/></g>
<g><path style="opacity:1" fill="#d84645" d="M 303.5,188.5 C 306.833,188.5 310.167,188.5 313.5,188.5C 313.831,211.006 313.497,233.34 312.5,255.5C 312.5,233.5 312.5,211.5 312.5,189.5C 309.287,189.81 306.287,189.477 303.5,188.5 Z"/></g>
<g><path style="opacity:1" fill="#e49e9d" d="M 324.5,164.5 C 326.504,165.673 328.004,167.34 329,169.5C 329.831,199.336 329.664,229.003 328.5,258.5C 328.667,229.498 328.5,200.498 328,171.5C 327.011,169.03 325.845,166.697 324.5,164.5 Z"/></g>
<g><path style="opacity:1" fill="#e28a89" d="M 393.5,233.5 C 393.884,237.489 393.217,241.155 391.5,244.5C 391.808,240.64 392.475,236.974 393.5,233.5 Z"/></g>
<g><path style="opacity:1" fill="#e9aaa9" d="M 118.5,254.5 C 120.277,257.505 121.277,260.838 121.5,264.5C 119.723,261.495 118.723,258.162 118.5,254.5 Z"/></g>
<g><path style="opacity:1" fill="#e17c79" d="M 323.5,268.5 C 322.713,270.104 321.38,270.771 319.5,270.5C 320.514,269.326 321.847,268.66 323.5,268.5 Z"/></g>
<g><path style="opacity:1" fill="#e69b9a" d="M 299.5,270.5 C 306.206,273.01 312.873,273.01 319.5,270.5C 316.88,272.895 313.713,273.895 310,273.5C 306.765,273.418 303.598,272.918 300.5,272C 299.944,271.617 299.611,271.117 299.5,270.5 Z"/></g>
<g><path style="opacity:1" fill="#e9a6a4" d="M 384.5,269.5 C 384.834,272.491 383.834,274.824 381.5,276.5C 381.935,273.843 382.935,271.509 384.5,269.5 Z"/></g>
<g><path style="opacity:1" fill="#e89f9d" d="M 191.5,274.5 C 189.207,277.906 188.874,281.573 190.5,285.5C 187.239,282.68 186.739,279.346 189,275.5C 189.671,274.748 190.504,274.414 191.5,274.5 Z"/></g>
<g><path style="opacity:1" fill="#e38c89" d="M 127.5,278.5 C 128.906,278.973 129.573,279.973 129.5,281.5C 128.094,281.027 127.427,280.027 127.5,278.5 Z"/></g>
<g><path style="opacity:1" fill="#edb1af" d="M 131.5,285.5 C 133.588,287.336 134.921,289.669 135.5,292.5C 132.41,291.335 131.076,289.002 131.5,285.5 Z"/></g>
<g><path style="opacity:1" fill="#e38987" d="M 376.5,286.5 C 376.573,288.027 375.906,289.027 374.5,289.5C 374.427,287.973 375.094,286.973 376.5,286.5 Z"/></g>
<g><path style="opacity:1" fill="#eeb3b1" d="M 374.5,289.5 C 374.657,290.873 374.49,292.207 374,293.5C 373.124,295.635 371.624,296.969 369.5,297.5C 370.383,294.296 372.05,291.629 374.5,289.5 Z"/></g>
<g><path style="opacity:1" fill="#ebb1af" d="M 361.5,308.5 C 358.899,312.771 355.566,316.437 351.5,319.5C 354.101,315.229 357.434,311.563 361.5,308.5 Z"/></g>
<g><path style="opacity:1" fill="#e9a8a7" d="M 153.5,315.5 C 155.587,316.585 156.92,318.251 157.5,320.5C 155.413,319.415 154.08,317.749 153.5,315.5 Z"/></g>
<g><path style="opacity:1" fill="#e69896" d="M 351.5,319.5 C 350.581,322.089 348.914,324.089 346.5,325.5C 347.419,322.911 349.086,320.911 351.5,319.5 Z"/></g>
<g><path style="opacity:1" fill="#e69896" d="M 160.5,324.5 C 162.914,325.911 164.581,327.911 165.5,330.5C 163.086,329.089 161.419,327.089 160.5,324.5 Z"/></g>
<g><path style="opacity:1" fill="#e9a5a4" d="M 341.5,332.5 C 340.92,334.749 339.587,336.415 337.5,337.5C 338.08,335.251 339.413,333.585 341.5,332.5 Z"/></g>
<g><path style="opacity:1" fill="#eaaaa8" d="M 173.5,341.5 C 175.914,342.911 177.581,344.911 178.5,347.5C 176.086,346.089 174.419,344.089 173.5,341.5 Z"/></g>
<g><path style="opacity:1" fill="#e9a8a7" d="M 185.5,356.5 C 187.587,357.585 188.92,359.251 189.5,361.5C 187.413,360.415 186.08,358.749 185.5,356.5 Z"/></g>
<g><path style="opacity:1" fill="#e8a2a0" d="M 323.5,355.5 C 322.92,357.749 321.587,359.415 319.5,360.5C 320.08,358.251 321.413,356.585 323.5,355.5 Z"/></g>
<g><path style="opacity:1" fill="#e79e9c" d="M 319.5,360.5 C 318.92,362.749 317.587,364.415 315.5,365.5C 316.08,363.251 317.413,361.585 319.5,360.5 Z"/></g>
<g><path style="opacity:1" fill="#e59391" d="M 315.5,365.5 C 314.92,367.749 313.587,369.415 311.5,370.5C 312.08,368.251 313.413,366.585 315.5,365.5 Z"/></g>
<g><path style="opacity:1" fill="#eaaaa8" d="M 205.5,382.5 C 207.914,383.911 209.581,385.911 210.5,388.5C 208.086,387.089 206.419,385.089 205.5,382.5 Z"/></g>
<g><path style="opacity:1" fill="#e9a3a1" d="M 298.5,387.5 C 297.92,389.749 296.587,391.415 294.5,392.5C 295.08,390.251 296.413,388.585 298.5,387.5 Z"/></g>
<g><path style="opacity:1" fill="#e69a98" d="M 210.5,388.5 C 212.587,389.585 213.92,391.251 214.5,393.5C 212.413,392.415 211.08,390.749 210.5,388.5 Z"/></g>
<g><path style="opacity:1" fill="#e69a98" d="M 294.5,392.5 C 293.581,395.089 291.914,397.089 289.5,398.5C 290.419,395.911 292.086,393.911 294.5,392.5 Z"/></g>
<g><path style="opacity:1" fill="#e8a3a2" d="M 220.5,401.5 C 222.587,402.585 223.92,404.251 224.5,406.5C 222.413,405.415 221.08,403.749 220.5,401.5 Z"/></g>
<g><path style="opacity:1" fill="#e79c9a" d="M 287.5,401.5 C 286.92,403.749 285.587,405.415 283.5,406.5C 284.08,404.251 285.413,402.585 287.5,401.5 Z"/></g>
<g><path style="opacity:1" fill="#eaa9a7" d="M 277.5,414.5 C 276.92,416.749 275.587,418.415 273.5,419.5C 274.08,417.251 275.413,415.585 277.5,414.5 Z"/></g>
<g><path style="opacity:1" fill="#e9a8a6" d="M 273.5,419.5 C 272.92,421.749 271.587,423.415 269.5,424.5C 270.08,422.251 271.413,420.585 273.5,419.5 Z"/></g>
<g><path style="opacity:1" fill="#ecaba9" d="M 267.5,426.5 C 266.972,427.721 266.305,428.887 265.5,430C 260.046,431.551 254.712,431.718 249.5,430.5C 256.04,431.254 262.04,429.921 267.5,426.5 Z"/></g>
</svg>
